<svg width="26.000000" height="27.000000" viewBox="0 0 26 27" fill="none" xmlns="http://www.w3.org/2000/svg" xmlns:xlink="http://www.w3.org/1999/xlink">
	<desc>
			Created with Pixso.
	</desc>
	<defs/>
	<path id="Vector" d="M12.05 26.02C19.23 26.02 25.06 20.19 25.06 13.01C25.06 5.82 19.24 0 12.05 0C4.87 0 -0.96 5.82 -0.96 13.01C-0.96 20.19 4.86 26.02 12.05 26.02Z" fill="#FFFFFF" fill-opacity="1.000000" fill-rule="nonzero"/>
	<path id="Vector" d="M25.06 13.01C25.06 20.19 19.23 26.02 12.05 26.02C4.86 26.02 -0.96 20.19 -0.96 13.01C-0.96 5.82 4.87 0 12.05 0C19.24 0 25.06 5.82 25.06 13.01ZM16.85 24.6Q14.64 25.52 12.05 25.52Q9.46 25.52 7.25 24.6Q5.03 23.68 3.2 21.85Q1.37 20.02 0.46 17.81Q-0.46 15.6 -0.46 13.01Q-0.46 10.41 0.46 8.2Q1.37 5.99 3.21 4.16Q5.04 2.33 7.25 1.41Q9.46 0.5 12.05 0.5Q14.64 0.5 16.85 1.41Q19.06 2.33 20.9 4.16Q22.73 5.99 23.64 8.2Q24.56 10.41 24.56 13.01Q24.56 15.6 23.64 17.81Q22.72 20.02 20.89 21.85Q19.06 23.68 16.85 24.6Z" fill="#F3A909" fill-opacity="1.000000" fill-rule="evenodd"/>
	<path id="Vector" d="M8.22 6.92C7.97 6.92 7.76 7.13 7.76 7.39L7.76 16.21L17.04 16.21L17.04 7.39C17.04 7.13 16.83 6.92 16.58 6.92L8.22 6.92ZM17.97 7.39L17.97 16.21L18.44 16.21C18.69 16.21 18.9 16.42 18.9 16.67C18.9 16.93 18.69 17.14 18.44 17.14L17.97 17.14L17.04 17.14L7.76 17.14L6.83 17.14L6.36 17.14C6.11 17.14 5.9 16.93 5.9 16.67C5.9 16.42 6.11 16.21 6.36 16.21L6.83 16.21L6.83 7.39C6.83 6.62 7.45 6 8.22 6L16.58 6C17.35 6 17.97 6.62 17.97 7.39ZM5.44 14.35L5.9 14.35L5.9 15.28L5.44 15.28C5.18 15.28 4.97 15.49 4.97 15.75L4.97 17.6C4.97 17.86 5.18 18.07 5.44 18.07L19.36 18.07C19.62 18.07 19.83 17.86 19.83 17.6L19.83 15.75C19.83 15.49 19.62 15.28 19.36 15.28L18.9 15.28L18.9 14.35L19.36 14.35C20.13 14.35 20.76 14.98 20.76 15.75L20.76 17.6C20.76 18.37 20.13 19 19.36 19L5.44 19C4.67 19 4.04 18.37 4.04 17.6L4.04 15.75C4.04 14.98 4.67 14.35 5.44 14.35ZM15.05 10.12L11.95 13.21C11.77 13.39 11.48 13.39 11.3 13.21L9.75 11.66C9.57 11.48 9.57 11.19 9.75 11.01C9.93 10.83 10.23 10.83 10.41 11.01L11.62 12.23L14.39 9.46C14.57 9.28 14.87 9.28 15.05 9.46C15.23 9.64 15.23 9.93 15.05 10.11L15.05 10.12Z" fill="#F3A909" fill-opacity="1.000000" fill-rule="nonzero"/>
</svg>
