<svg width="33.000000" height="38.000000" viewBox="0 0 33 38" fill="none" xmlns="http://www.w3.org/2000/svg" xmlns:xlink="http://www.w3.org/1999/xlink">
	<desc>
			Created with Pixso.
	</desc>
	<defs/>
	<path id="Vector" d="M32.29 17.37C32.29 25.97 25.33 32.93 16.74 32.93C8.15 32.93 1.18 25.97 1.18 17.37C1.18 8.78 8.15 1.82 16.74 1.82C25.33 1.82 32.29 8.78 32.29 17.37Z" fill="#FFDD00" fill-opacity="1.000000" fill-rule="evenodd"/>
	<g opacity="0.500000">
		<path id="Vector" d="M19.63 5.5C22.7 8.56 21.96 14.27 17.98 18.25C14 22.23 8.3 22.97 5.23 19.9C2.17 16.84 2.91 11.13 6.89 7.16C10.87 3.18 16.57 2.44 19.63 5.5Z" fill="#FFDD00" fill-opacity="1.000000" fill-rule="evenodd"/>
	</g>
	<g opacity="0.300000">
		<path id="Vector" d="M12.46 12.94C10.66 14.74 8.08 15.08 6.69 13.69C5.3 12.3 5.63 9.72 7.44 7.92C9.24 6.11 11.82 5.78 13.21 7.17C14.6 8.55 14.25 11.14 12.46 12.94Z" fill="#FFFFFF" fill-opacity="1.000000" fill-rule="nonzero"/>
	</g>
	<g opacity="0.400000">
		<path id="Vector" d="M16.74 32.37C14.25 32.36 11.8 31.74 9.62 30.55C7.43 29.37 5.57 27.66 4.2 25.59C7.05 27.77 10.59 28.84 14.17 28.61C17.76 28.37 21.13 26.84 23.67 24.3C26.21 21.76 27.74 18.39 27.97 14.81C28.21 11.22 27.14 7.68 24.95 4.83C27.65 6.6 29.71 9.19 30.82 12.22C31.93 15.25 32.03 18.56 31.11 21.66C30.19 24.75 28.29 27.47 25.7 29.4C23.12 31.33 19.97 32.37 16.74 32.37L16.74 32.37Z" fill="#FFDD00" fill-opacity="1.000000" fill-rule="nonzero"/>
	</g>
	<path id="Vector" d="M27.14 7.39C29.74 10.11 31.18 13.75 31.13 17.52C31.09 21.29 29.58 24.89 26.91 27.55C24.25 30.22 20.65 31.73 16.88 31.78C13.11 31.82 9.48 30.38 6.75 27.78C9.61 29.09 12.79 29.5 15.88 28.95C18.98 28.39 21.82 26.91 24.04 24.68C26.26 22.46 27.75 19.62 28.3 16.52C28.86 13.43 28.45 10.24 27.14 7.39ZM22.22 2.82C23.76 4.08 25.01 5.65 25.9 7.43C26.79 9.2 27.3 11.14 27.4 13.13C27.5 15.11 27.18 17.09 26.46 18.95C25.75 20.8 24.65 22.48 23.25 23.89C21.84 25.29 20.16 26.39 18.31 27.1C16.45 27.82 14.47 28.14 12.49 28.04C10.5 27.95 8.56 27.43 6.79 26.54C5.01 25.65 3.44 24.4 2.18 22.86C3.1 25.3 4.61 27.47 6.58 29.18C8.55 30.88 10.92 32.06 13.46 32.62C16.01 33.17 18.65 33.07 21.15 32.34C23.65 31.6 25.92 30.25 27.77 28.41C29.61 26.57 30.96 24.29 31.69 21.79C32.43 19.29 32.52 16.65 31.97 14.1C31.42 11.56 30.24 9.19 28.54 7.22C26.83 5.25 24.66 3.73 22.22 2.82Z" fill="#FFDD00" fill-opacity="1.000000" fill-rule="nonzero"/>
	<path id="Vector" d="M10.28 16.58L10.28 30.74" stroke="#70CACD" stroke-opacity="1.000000" stroke-width="13.830000" stroke-linecap="round"/>
	<path id="Vector" d="M23.19 16.58L23.19 30.74" stroke="#70CACD" stroke-opacity="1.000000" stroke-width="13.830000" stroke-linecap="round"/>
	<path id="Vector" d="M12.95 16.59C12.55 16.08 12.01 15.69 11.39 15.48C11.03 15.37 10.66 15.31 10.28 15.32C9.77 15.3 9.25 15.41 8.79 15.63C8.32 15.85 7.92 16.18 7.61 16.59L7.57 16.63C7.55 16.65 7.54 16.65 7.52 16.65C7.5 16.65 7.48 16.65 7.47 16.63C7.46 16.63 7.45 16.62 7.45 16.61C7.44 16.6 7.44 16.6 7.44 16.59C7.43 16.21 7.49 15.84 7.62 15.48C7.76 15.13 7.97 14.81 8.23 14.54C8.5 14.26 8.81 14.04 9.17 13.89C9.52 13.74 9.9 13.66 10.28 13.66C10.66 13.66 11.04 13.74 11.39 13.89C11.75 14.04 12.06 14.26 12.33 14.54C12.59 14.81 12.8 15.13 12.94 15.48C13.07 15.84 13.13 16.21 13.12 16.59C13.12 16.6 13.12 16.61 13.11 16.61C13.11 16.62 13.1 16.63 13.1 16.64C13.09 16.64 13.08 16.65 13.07 16.65C13.06 16.65 13.05 16.66 13.04 16.65C13.02 16.65 13.01 16.65 12.99 16.63L12.95 16.59Z" fill="#1C1C1C" fill-opacity="1.000000" fill-rule="nonzero"/>
	<path id="Vector" d="M5.33 12.05C5.98 12.12 6.64 12.01 7.22 11.72C7.56 11.54 7.86 11.32 8.12 11.05C8.39 10.79 8.62 10.49 8.8 10.15C9.08 9.57 9.2 8.91 9.12 8.26L9.12 8.2C9.12 8.19 9.12 8.18 9.12 8.17C9.13 8.17 9.13 8.16 9.14 8.15C9.14 8.14 9.15 8.14 9.16 8.13C9.17 8.13 9.18 8.13 9.19 8.12C9.2 8.12 9.21 8.12 9.22 8.13C9.22 8.13 9.23 8.14 9.24 8.14C9.51 8.4 9.73 8.71 9.89 9.05C10.12 9.58 10.18 10.16 10.07 10.72C9.96 11.28 9.69 11.8 9.28 12.21C8.88 12.61 8.36 12.89 7.8 13C7.23 13.1 6.65 13.04 6.12 12.81C5.78 12.66 5.48 12.44 5.22 12.17C5.21 12.16 5.21 12.15 5.2 12.14C5.2 12.13 5.2 12.13 5.2 12.12C5.2 12.11 5.2 12.1 5.2 12.09C5.21 12.08 5.21 12.07 5.22 12.07C5.23 12.06 5.23 12.05 5.24 12.05C5.25 12.05 5.26 12.04 5.27 12.05L5.33 12.05Z" fill="#1C1C1C" fill-opacity="1.000000" fill-rule="nonzero"/>
	<path id="Vector" d="M28.26 12.15C28 12.42 27.69 12.64 27.35 12.8C27 12.95 26.63 13.03 26.25 13.03C25.67 13.05 25.11 12.89 24.62 12.58C24.14 12.27 23.76 11.81 23.54 11.28C23.33 10.74 23.28 10.16 23.4 9.59C23.53 9.03 23.82 8.52 24.24 8.13C24.25 8.12 24.26 8.12 24.26 8.11C24.27 8.11 24.28 8.11 24.29 8.11C24.3 8.11 24.31 8.11 24.32 8.11C24.33 8.12 24.34 8.12 24.34 8.13C24.35 8.14 24.36 8.14 24.36 8.15C24.36 8.16 24.36 8.17 24.36 8.18L24.36 8.24C24.29 8.89 24.4 9.55 24.69 10.13C24.86 10.47 25.09 10.77 25.36 11.03C25.62 11.31 25.92 11.54 26.25 11.72C26.84 12.01 27.49 12.12 28.14 12.04L28.2 12.04C28.2 12.04 28.21 12.04 28.22 12.05C28.23 12.05 28.24 12.05 28.25 12.06C28.25 12.07 28.26 12.07 28.27 12.08C28.27 12.09 28.27 12.1 28.27 12.11C28.27 12.12 28.27 12.14 28.26 12.15Z" fill="#1C1C1C" fill-opacity="1.000000" fill-rule="nonzero"/>
	<path id="Vector" d="M25.87 16.59C25.46 16.07 24.92 15.69 24.3 15.48C23.94 15.36 23.57 15.31 23.19 15.32C22.68 15.3 22.17 15.4 21.7 15.62C21.23 15.85 20.83 16.18 20.52 16.59L20.48 16.63C20.47 16.64 20.45 16.65 20.43 16.65C20.41 16.65 20.39 16.64 20.38 16.63C20.36 16.62 20.35 16.6 20.35 16.58C20.34 16.2 20.4 15.83 20.53 15.48C20.67 15.12 20.88 14.8 21.14 14.53C21.41 14.26 21.73 14.04 22.08 13.89C22.43 13.73 22.81 13.66 23.19 13.66C23.58 13.66 23.95 13.73 24.31 13.89C24.66 14.04 24.98 14.26 25.24 14.53C25.5 14.8 25.71 15.12 25.85 15.48C25.98 15.83 26.05 16.2 26.03 16.58C26.03 16.59 26.03 16.6 26.03 16.61C26.02 16.61 26.02 16.62 26.01 16.63C26 16.63 25.99 16.64 25.98 16.64C25.98 16.65 25.97 16.65 25.96 16.65C25.94 16.65 25.92 16.64 25.91 16.62L25.87 16.59Z" fill="#1C1C1C" fill-opacity="1.000000" fill-rule="nonzero"/>
	<path id="Vector" d="M28.6 32C28.6 32.9 23.29 33.64 16.74 33.64C10.19 33.64 4.87 32.9 4.87 32C4.87 31.09 10.18 30.35 16.74 30.35C23.29 30.35 28.6 31.09 28.6 32Z" fill="#70CACD" fill-opacity="1.000000" fill-rule="nonzero"/>
	<path id="Vector" d="M20.29 22.14C20.29 24.59 18.7 26.58 16.74 26.58C14.77 26.58 13.18 24.59 13.18 22.14C13.18 19.68 14.77 17.69 16.74 17.69C18.7 17.69 20.29 19.68 20.29 22.14Z" fill="#1C1C1C" fill-opacity="1.000000" fill-rule="evenodd"/>
	<mask id="mask535_4152" mask-type="alpha" maskUnits="userSpaceOnUse" x="13.188232" y="17.696289" width="7.108459" height="8.887695">
		<path id="Vector" d="M20.29 22.14C20.29 24.59 18.7 26.58 16.74 26.58C14.77 26.58 13.18 24.59 13.18 22.14C13.18 19.68 14.77 17.69 16.74 17.69C18.7 17.69 20.29 19.68 20.29 22.14Z" fill="#000000" fill-opacity="1.000000" fill-rule="evenodd"/>
	</mask>
	<g mask="url(#mask535_4152)">
		<path id="Vector" d="M20.29 27.56C20.29 30.02 18.7 32.01 16.74 32.01C14.77 32.01 13.18 30.02 13.18 27.56C13.18 25.11 14.77 23.12 16.74 23.12C18.7 23.12 20.29 25.11 20.29 27.56Z" fill="#FF5151" fill-opacity="1.000000" fill-rule="evenodd"/>
	</g>
</svg>
