<svg width="31.000000" height="32.000000" viewBox="0 0 31 32" fill="none" xmlns="http://www.w3.org/2000/svg" xmlns:xlink="http://www.w3.org/1999/xlink">
	<desc>
			Created with Pixso.
	</desc>
	<defs/>
	<path id="Vector" d="M30.27 15.47C30.27 24.06 23.3 31.03 14.72 31.03C6.13 31.03 -0.84 24.06 -0.84 15.47C-0.84 6.88 6.13 -0.08 14.72 -0.08C23.3 -0.08 30.27 6.88 30.27 15.47Z" fill="#FF5151" fill-opacity="1.000000" fill-rule="evenodd"/>
	<g opacity="0.500000">
		<path id="Vector" d="M14.77 6.43C17.84 9.5 18.13 14.16 15.44 16.86C12.75 19.55 8.08 19.26 5.02 16.19C1.95 13.13 1.65 8.46 4.35 5.77C7.04 3.07 11.71 3.37 14.77 6.43Z" fill="#FF5151" fill-opacity="1.000000" fill-rule="evenodd"/>
	</g>
	<g opacity="0.300000">
		<path id="Vector" d="M11.19 5.26C12.58 6.65 12.24 9.24 10.44 11.04C8.64 12.84 6.05 13.18 4.66 11.79C3.28 10.4 3.61 7.82 5.41 6.01C7.22 4.21 9.8 3.87 11.19 5.26Z" fill="#FFFFFF" fill-opacity="1.000000" fill-rule="evenodd"/>
	</g>
	<g opacity="0.400000">
		<path id="Vector" d="M14.71 30.47C12.23 30.46 9.78 29.84 7.59 28.65C5.4 27.47 3.54 25.76 2.17 23.68C5.02 25.87 8.57 26.95 12.16 26.72C15.74 26.49 19.12 24.96 21.66 22.41C24.2 19.87 25.73 16.49 25.96 12.91C26.2 9.32 25.12 5.77 22.93 2.92C25.63 4.69 27.69 7.28 28.8 10.32C29.91 13.35 30.01 16.66 29.09 19.75C28.16 22.85 26.27 25.56 23.68 27.49C21.09 29.42 17.95 30.46 14.72 30.46L14.71 30.47Z" fill="#FF5151" fill-opacity="1.000000" fill-rule="nonzero"/>
	</g>
	<path id="Vector" d="M25.11 5.49C27.68 8.22 29.08 11.84 29.02 15.59C28.96 19.33 27.44 22.91 24.79 25.56C22.14 28.21 18.57 29.72 14.82 29.78C11.08 29.84 7.46 28.43 4.73 25.87C7.58 27.18 10.77 27.59 13.86 27.03C16.95 26.48 19.8 24.99 22.02 22.77C24.24 20.55 25.73 17.7 26.28 14.61C26.83 11.52 26.43 8.33 25.11 5.48L25.11 5.49ZM20.2 0.92C21.74 2.18 22.99 3.75 23.89 5.52C24.78 7.3 25.3 9.24 25.39 11.23C25.49 13.22 25.17 15.2 24.46 17.06C23.74 18.91 22.65 20.6 21.24 22C19.84 23.41 18.15 24.51 16.3 25.22C14.44 25.94 12.46 26.26 10.47 26.16C8.48 26.06 6.54 25.55 4.76 24.65C2.99 23.76 1.42 22.5 0.16 20.96C1.07 23.4 2.59 25.57 4.56 27.28C6.53 28.98 8.89 30.16 11.44 30.71C13.98 31.27 16.63 31.17 19.13 30.43C21.63 29.7 23.9 28.35 25.74 26.51C27.58 24.66 28.93 22.39 29.67 19.89C30.4 17.39 30.5 14.75 29.95 12.2C29.4 9.65 28.21 7.29 26.51 5.31C24.81 3.34 22.64 1.83 20.2 0.92Z" fill="#FF5151" fill-opacity="1.000000" fill-rule="nonzero"/>
	<path id="Vector" d="M19.22 8.25C18.03 8.25 16.88 8.72 16.03 9.57C15.19 10.41 14.71 11.56 14.71 12.76C14.71 12.82 14.71 12.89 14.71 12.95L14.69 12.95C14.69 12.89 14.69 12.82 14.69 12.76C14.69 11.56 14.22 10.41 13.37 9.57C12.52 8.72 11.38 8.24 10.18 8.24C8.98 8.24 7.84 8.72 6.99 9.57C6.14 10.41 5.67 11.56 5.67 12.76C5.67 20.83 14.69 24.84 14.69 24.84C14.69 24.84 23.71 20.83 23.71 12.76C23.71 11.56 23.24 10.42 22.4 9.58C21.56 8.73 20.41 8.25 19.22 8.25Z" fill="#FFFFFF" fill-opacity="1.000000" fill-rule="nonzero"/>
</svg>
