<svg width="33.000000" height="34.000000" viewBox="0 0 33 34" fill="none" xmlns="http://www.w3.org/2000/svg" xmlns:xlink="http://www.w3.org/1999/xlink">
	<desc>
			Created with Pixso.
	</desc>
	<defs/>
	<path id="Vector" d="M32.11 17.47C32.11 26.06 25.14 33.03 16.55 33.03C7.96 33.03 1 26.06 1 17.47C1 8.88 7.96 1.92 16.55 1.92C25.14 1.92 32.11 8.88 32.11 17.47Z" fill="#009CE8" fill-opacity="1.000000" fill-rule="evenodd"/>
	<g opacity="0.400000">
		<path id="Vector" d="M16.56 32.41C14.07 32.41 11.62 31.78 9.43 30.6C7.24 29.42 5.38 27.71 4.01 25.63C6.86 27.82 10.41 28.9 13.99 28.67C17.58 28.43 20.96 26.9 23.5 24.36C26.04 21.82 27.57 18.44 27.8 14.85C28.03 11.27 26.95 7.72 24.76 4.87C27.47 6.64 29.53 9.23 30.64 12.26C31.76 15.29 31.86 18.61 30.94 21.7C30.02 24.8 28.12 27.51 25.53 29.44C22.94 31.37 19.79 32.41 16.56 32.41Z" fill="#009CE8" fill-opacity="1.000000" fill-rule="nonzero"/>
	</g>
	<path id="Vector" d="M26.94 7.43C29.47 10.17 30.85 13.78 30.78 17.51C30.71 21.24 29.19 24.79 26.56 27.43C23.92 30.07 20.37 31.58 16.64 31.65C12.91 31.72 9.3 30.35 6.57 27.81C9.42 29.12 12.6 29.52 15.69 28.97C18.78 28.41 21.62 26.93 23.84 24.71C26.06 22.49 27.54 19.64 28.1 16.56C28.65 13.47 28.25 10.28 26.94 7.43ZM22.04 2.86C23.57 4.12 24.83 5.69 25.72 7.47C26.62 9.24 27.13 11.19 27.22 13.17C27.32 15.16 27 17.14 26.29 19C25.57 20.85 24.48 22.54 23.07 23.94C21.67 25.35 19.98 26.44 18.13 27.16C16.27 27.87 14.29 28.19 12.3 28.1C10.32 28 8.38 27.49 6.6 26.59C4.83 25.7 3.26 24.44 2 22.91C2.91 25.35 4.42 27.52 6.39 29.22C8.36 30.92 10.73 32.1 13.28 32.66C15.82 33.21 18.46 33.11 20.96 32.38C23.46 31.64 25.74 30.29 27.58 28.45C29.42 26.61 30.77 24.33 31.5 21.83C32.24 19.33 32.33 16.69 31.78 14.14C31.23 11.6 30.05 9.23 28.35 7.26C26.65 5.29 24.48 3.78 22.04 2.86Z" fill="#009CE8" fill-opacity="1.000000" fill-rule="nonzero"/>
	<g opacity="0.500000">
		<path id="Vector" d="M19.45 5.54C22.51 8.6 21.77 14.31 17.79 18.29C13.82 22.26 8.11 23.01 5.05 19.94C1.98 16.88 2.73 11.17 6.7 7.2C10.68 3.22 16.39 2.48 19.45 5.54Z" fill="#009CE8" fill-opacity="1.000000" fill-rule="evenodd"/>
	</g>
	<g opacity="0.300000">
		<path id="Vector" d="M13.03 7.21C14.41 8.6 14.08 11.18 12.28 12.99C10.47 14.79 7.89 15.12 6.5 13.74C5.11 12.35 5.45 9.76 7.25 7.96C9.05 6.16 11.64 5.82 13.03 7.21Z" fill="#FFFFFF" fill-opacity="1.000000" fill-rule="evenodd"/>
	</g>
	<path id="Vector" d="M22.49 25.17L19.34 25.17C19.29 25.16 19.25 25.15 19.2 25.15C18.79 25.12 18.38 25.11 17.97 25.08C16.67 25.02 15.39 24.71 14.2 24.17C13.82 23.99 13.41 23.9 13 23.92C12.67 23.92 12.35 23.92 12.02 23.92C11.83 23.92 11.63 23.9 11.43 23.86C11.27 23.84 11.11 23.76 11 23.63C10.88 23.51 10.81 23.36 10.78 23.19C10.76 23 10.74 22.8 10.74 22.61C10.74 21.03 10.74 19.46 10.74 17.89C10.74 17.53 10.74 17.18 10.76 16.82C10.76 16.54 10.88 16.27 11.08 16.07C11.28 15.87 11.55 15.76 11.83 15.76C12.26 15.75 12.68 15.71 13.1 15.65C13.33 15.62 13.55 15.53 13.74 15.4C13.93 15.26 14.08 15.08 14.18 14.87C14.4 14.4 14.72 13.97 15.11 13.63C15.46 13.35 15.82 13.09 16.19 12.84C16.62 12.62 16.98 12.28 17.23 11.87C17.51 11.32 17.76 10.76 17.98 10.18C18.13 9.79 18.18 9.37 18.3 8.96C18.33 8.8 18.39 8.65 18.48 8.52C18.57 8.39 18.69 8.28 18.83 8.2L19.23 8.2C19.28 8.2 19.34 8.23 19.39 8.24C19.68 8.27 19.97 8.38 20.2 8.57C20.43 8.75 20.6 9.01 20.69 9.29C20.76 9.55 20.81 9.83 20.81 10.1C20.79 11.31 20.54 12.5 20.07 13.61C19.98 13.82 19.87 14.03 19.77 14.26L19.86 14.28L24.02 14.79C24.31 14.81 24.6 14.86 24.88 14.93C25.15 15.03 25.38 15.21 25.54 15.45C25.7 15.69 25.78 15.97 25.77 16.26C25.76 16.55 25.66 16.82 25.49 17.05C25.31 17.28 25.07 17.44 24.79 17.52L24.54 17.58C24.86 17.63 25.15 17.8 25.35 18.04C25.56 18.29 25.67 18.61 25.67 18.93C25.66 19.11 25.62 19.3 25.55 19.46C25.47 19.63 25.36 19.78 25.22 19.9C24.93 20.15 24.56 20.27 24.18 20.25C24.21 20.27 24.25 20.29 24.28 20.31C24.53 20.38 24.75 20.53 24.91 20.73C25.07 20.94 25.16 21.18 25.17 21.44C25.19 21.71 25.13 21.98 24.99 22.21C24.86 22.44 24.66 22.62 24.42 22.74C24.12 22.87 23.79 22.91 23.46 22.87L22.96 22.85C23.07 22.92 23.18 23 23.29 23.09C23.42 23.24 23.52 23.43 23.57 23.63C23.62 23.83 23.62 24.03 23.57 24.23C23.53 24.44 23.42 24.63 23.24 24.76C23.02 24.95 22.77 25.09 22.49 25.17Z" fill="#FFFFFF" fill-opacity="1.000000" fill-rule="nonzero"/>
	<path id="Vector" d="M7.97 15.82L9.41 15.82C9.78 15.82 10.07 16.11 10.07 16.48L10.07 23.24C10.07 23.61 9.78 23.91 9.41 23.91L7.97 23.91C7.61 23.91 7.31 23.61 7.31 23.24L7.31 16.48C7.31 16.11 7.61 15.82 7.97 15.82Z" fill="#FFFFFF" fill-opacity="1.000000" fill-rule="evenodd"/>
</svg>
