<svg width="31.000000" height="31.000000" viewBox="0 0 31 31" fill="none" xmlns="http://www.w3.org/2000/svg" xmlns:xlink="http://www.w3.org/1999/xlink">
	<desc>
			Created with Pixso.
	</desc>
	<defs/>
	<path id="Vector" d="M30.45 15.38C30.45 23.97 23.49 30.93 14.9 30.93C6.31 30.93 -0.66 23.97 -0.66 15.38C-0.66 6.78 6.31 -0.18 14.9 -0.18C23.49 -0.18 30.45 6.78 30.45 15.38Z" fill="#D61516" fill-opacity="1.000000" fill-rule="evenodd"/>
	<g opacity="0.500000">
		<path id="Vector" d="M15.28 6.01C18.34 9.07 18.58 13.8 15.82 16.56C13.05 19.33 8.33 19.09 5.26 16.03C2.2 12.97 1.96 8.24 4.73 5.47C7.49 2.71 12.22 2.95 15.28 6.01Z" fill="#D61516" fill-opacity="1.000000" fill-rule="evenodd"/>
	</g>
	<g opacity="0.300000">
		<path id="Vector" d="M11.37 5.17C12.76 6.55 12.43 9.14 10.63 10.94C8.82 12.75 6.24 13.08 4.85 11.69C3.46 10.3 3.8 7.72 5.6 5.92C7.4 4.11 9.99 3.78 11.37 5.17Z" fill="#FFFFFF" fill-opacity="1.000000" fill-rule="evenodd"/>
	</g>
	<g opacity="0.400000">
		<path id="Vector" d="M14.9 30.37C12.41 30.36 9.96 29.74 7.78 28.55C5.59 27.37 3.73 25.66 2.36 23.59C5.21 25.77 8.75 26.85 12.34 26.61C15.92 26.37 19.29 24.84 21.83 22.3C24.37 19.77 25.9 16.39 26.13 12.81C26.37 9.23 25.3 5.68 23.11 2.83C25.82 4.6 27.88 7.19 28.99 10.22C30.09 13.26 30.2 16.57 29.27 19.66C28.35 22.75 26.45 25.47 23.86 27.4C21.27 29.33 18.13 30.37 14.9 30.37L14.9 30.37Z" fill="#D61516" fill-opacity="1.000000" fill-rule="nonzero"/>
	</g>
	<path id="Vector" d="M25.3 5.39C27.9 8.11 29.34 11.75 29.3 15.52C29.25 19.29 27.74 22.89 25.07 25.55C22.41 28.22 18.81 29.73 15.04 29.78C11.27 29.82 7.64 28.38 4.92 25.78C7.77 27.09 10.95 27.5 14.05 26.95C17.14 26.39 19.99 24.91 22.21 22.68C24.43 20.46 25.91 17.62 26.47 14.52C27.02 11.43 26.61 8.24 25.3 5.39ZM20.38 0.82C21.92 2.08 23.17 3.65 24.06 5.43C24.96 7.2 25.47 9.14 25.56 11.13C25.66 13.11 25.34 15.09 24.62 16.95C23.91 18.8 22.81 20.48 21.41 21.89C20.01 23.29 18.32 24.39 16.47 25.1C14.62 25.82 12.63 26.14 10.65 26.04C8.67 25.95 6.72 25.43 4.95 24.54C3.18 23.65 1.61 22.4 0.35 20.86C1.26 23.3 2.77 25.47 4.74 27.18C6.71 28.88 9.08 30.06 11.62 30.62C14.17 31.17 16.81 31.07 19.31 30.34C21.81 29.6 24.09 28.25 25.93 26.41C27.77 24.57 29.12 22.29 29.86 19.79C30.59 17.29 30.69 14.65 30.13 12.1C29.58 9.56 28.4 7.19 26.7 5.22C24.99 3.25 22.82 1.73 20.38 0.82Z" fill="#D61516" fill-opacity="1.000000" fill-rule="nonzero"/>
	<path id="Vector" d="M21.02 23.77C21.02 24.92 18.28 25.25 14.9 25.25C11.51 25.25 8.77 24.93 8.77 23.77C8.77 22.62 11.52 21.11 14.9 21.11C18.28 21.11 21.02 22.63 21.02 23.77Z" fill="#1C1C1C" fill-opacity="1.000000" fill-rule="nonzero"/>
	<path id="Vector" d="M10.9 15.78C10.9 17.25 10.19 18.43 9.32 18.43C8.45 18.43 7.74 17.25 7.74 15.78C7.74 14.32 8.45 13.13 9.32 13.13C10.19 13.13 10.9 14.32 10.9 15.78Z" fill="#1C1C1C" fill-opacity="1.000000" fill-rule="evenodd"/>
	<path id="Vector" d="M22.06 15.78C22.06 17.25 21.35 18.43 20.48 18.43C19.61 18.43 18.9 17.25 18.9 15.78C18.9 14.32 19.61 13.13 20.48 13.13C21.35 13.13 22.06 14.32 22.06 15.78Z" fill="#1C1C1C" fill-opacity="1.000000" fill-rule="evenodd"/>
	<path id="Vector" d="M5.5 10.05C5.54 10.35 5.65 10.63 5.8 10.89C5.96 11.15 6.16 11.37 6.41 11.55C6.9 11.94 7.45 12.25 8.03 12.48C8.61 12.73 9.2 12.93 9.81 13.1C10.11 13.18 10.42 13.26 10.73 13.33C11.04 13.39 11.34 13.46 11.65 13.53L11.63 13.69C10.99 14.13 10.24 14.37 9.47 14.41C8.75 14.44 8.03 14.3 7.37 14.02C6.64 13.71 6.01 13.21 5.55 12.57C5.29 12.21 5.11 11.8 5.03 11.36C4.99 11.13 5 10.9 5.05 10.67C5.11 10.45 5.21 10.24 5.36 10.06L5.5 10.05Z" fill="#1C1C1C" fill-opacity="1.000000" fill-rule="nonzero"/>
	<path id="Vector" d="M18.16 13.54C18.48 13.47 18.78 13.42 19.08 13.34C19.39 13.26 19.7 13.19 20 13.11C20.61 12.95 21.2 12.74 21.78 12.48C22.36 12.26 22.91 11.95 23.4 11.56C23.65 11.39 23.85 11.16 24.01 10.9C24.16 10.64 24.27 10.36 24.31 10.06L24.48 10.06C24.62 10.24 24.73 10.45 24.78 10.68C24.84 10.91 24.84 11.14 24.8 11.37C24.72 11.81 24.54 12.23 24.28 12.59C23.82 13.23 23.19 13.73 22.46 14.03C21.8 14.31 21.08 14.44 20.36 14.41C19.59 14.38 18.84 14.14 18.2 13.71L18.16 13.54Z" fill="#1C1C1C" fill-opacity="1.000000" fill-rule="nonzero"/>
</svg>
