<svg width="31.000000" height="31.000000" viewBox="0 0 31 31" fill="none" xmlns="http://www.w3.org/2000/svg" xmlns:xlink="http://www.w3.org/1999/xlink">
	<desc>
			Created with Pixso.
	</desc>
	<defs/>
	<path id="Vector" d="M30.82 14.62C30.82 23.22 23.86 30.18 15.27 30.18C6.68 30.18 -0.29 23.22 -0.29 14.62C-0.29 6.03 6.68 -0.93 15.27 -0.93C23.86 -0.93 30.82 6.03 30.82 14.62Z" fill="#FFDD00" fill-opacity="1.000000" fill-rule="evenodd"/>
	<g opacity="0.500000">
		<path id="Vector" d="M15.35 6.39C18.18 9.22 18.38 13.62 15.8 16.21C13.21 18.79 8.81 18.59 5.98 15.76C3.14 12.92 2.94 8.53 5.53 5.94C8.12 3.35 12.51 3.55 15.35 6.39Z" fill="#FFDD00" fill-opacity="1.000000" fill-rule="evenodd"/>
	</g>
	<g opacity="0.300000">
		<path id="Vector" d="M10.99 10.19C9.19 11.99 6.61 12.33 5.22 10.94C3.84 9.55 4.17 6.96 5.97 5.16C7.77 3.36 10.36 3.02 11.75 4.41C13.13 5.8 12.8 8.39 10.99 10.19Z" fill="#FFFFFF" fill-opacity="1.000000" fill-rule="nonzero"/>
	</g>
	<g opacity="0.400000">
		<path id="Vector" d="M15.27 29.62C12.78 29.61 10.33 28.98 8.15 27.8C5.96 26.62 4.1 24.91 2.73 22.83C5.58 25.02 9.13 26.1 12.71 25.87C16.3 25.64 19.68 24.11 22.22 21.56C24.76 19.02 26.29 15.64 26.52 12.06C26.75 8.47 25.67 4.92 23.48 2.07C26.19 3.84 28.25 6.43 29.35 9.47C30.46 12.5 30.57 15.81 29.64 18.9C28.72 22 26.82 24.71 24.23 26.64C21.64 28.57 18.5 29.61 15.27 29.61L15.27 29.62Z" fill="#FFDD00" fill-opacity="1.000000" fill-rule="nonzero"/>
	</g>
	<path id="Vector" d="M25.67 4.64C28.23 7.37 29.63 10.99 29.57 14.74C29.51 18.48 28 22.06 25.35 24.71C22.7 27.36 19.13 28.87 15.38 28.93C11.64 28.99 8.01 27.58 5.28 25.02C8.14 26.33 11.32 26.74 14.42 26.18C17.51 25.63 20.35 24.14 22.58 21.92C24.8 19.7 26.28 16.85 26.84 13.76C27.39 10.67 26.98 7.48 25.67 4.63L25.67 4.64ZM20.75 0.07C22.29 1.33 23.55 2.9 24.44 4.67C25.34 6.45 25.85 8.39 25.95 10.38C26.05 12.37 25.73 14.35 25.02 16.21C24.3 18.06 23.2 19.75 21.8 21.15C20.39 22.56 18.71 23.66 16.85 24.37C15 25.09 13.01 25.41 11.03 25.31C9.04 25.21 7.1 24.7 5.32 23.8C3.54 22.91 1.98 21.65 0.72 20.11C1.63 22.55 3.14 24.72 5.11 26.43C7.08 28.13 9.45 29.31 12 29.86C14.54 30.41 17.18 30.32 19.68 29.58C22.18 28.85 24.46 27.5 26.3 25.66C28.14 23.81 29.49 21.54 30.22 19.04C30.96 16.54 31.06 13.89 30.5 11.35C29.95 8.8 28.77 6.44 27.07 4.46C25.36 2.49 23.19 0.98 20.75 0.07Z" fill="#FFDD00" fill-opacity="1.000000" fill-rule="nonzero"/>
	<path id="Vector" d="M6.26 16.36C6.76 21.2 10.6 24.97 15.27 24.97C19.93 24.97 23.77 21.2 24.28 16.36L6.26 16.36Z" fill="#212121" fill-opacity="1.000000" fill-rule="nonzero"/>
	<mask id="mask535_4117" mask-type="alpha" maskUnits="userSpaceOnUse" x="6.266357" y="16.362793" width="18.014343" height="8.608398">
		<path id="Vector" d="M6.26 16.36C6.76 21.2 10.6 24.97 15.27 24.97C19.93 24.97 23.77 21.2 24.28 16.36L6.26 16.36Z" fill="#000000" fill-opacity="1.000000" fill-rule="nonzero"/>
	</mask>
	<g mask="url(#mask535_4117)">
		<path id="Vector" d="M21.18 22.66C21.18 24.5 18.54 26 15.27 26C12 26 9.35 24.5 9.35 22.66C9.35 20.81 12 19.31 15.27 19.31C18.53 19.31 21.18 20.8 21.18 22.66Z" fill="#FF5151" fill-opacity="1.000000" fill-rule="nonzero"/>
	</g>
	<path id="Vector" d="M12.61 12.71C12.2 12.19 11.66 11.81 11.04 11.59C10.68 11.48 10.31 11.43 9.93 11.44C9.55 11.43 9.18 11.48 8.82 11.59C8.2 11.81 7.66 12.19 7.26 12.71L7.22 12.75C7.21 12.76 7.21 12.76 7.2 12.77C7.19 12.77 7.18 12.77 7.17 12.77C7.16 12.77 7.15 12.77 7.14 12.77C7.13 12.76 7.12 12.76 7.12 12.75C7.1 12.74 7.09 12.72 7.09 12.7C7.08 12.32 7.14 11.95 7.27 11.59C7.41 11.24 7.62 10.92 7.89 10.65C8.15 10.37 8.47 10.15 8.82 10C9.17 9.85 9.55 9.77 9.93 9.77C10.31 9.77 10.69 9.85 11.04 10C11.4 10.15 11.71 10.37 11.98 10.65C12.25 10.91 12.46 11.24 12.59 11.59C12.73 11.94 12.79 12.32 12.77 12.7C12.77 12.71 12.77 12.72 12.77 12.72C12.76 12.73 12.76 12.74 12.75 12.75C12.74 12.75 12.73 12.76 12.73 12.76C12.72 12.76 12.71 12.77 12.7 12.77C12.69 12.77 12.68 12.76 12.67 12.76C12.66 12.75 12.65 12.75 12.65 12.74L12.61 12.71Z" fill="#1C1C1C" fill-opacity="1.000000" fill-rule="nonzero"/>
	<path id="Vector" d="M23.28 12.71C22.87 12.19 22.33 11.81 21.71 11.59C21.35 11.48 20.98 11.43 20.6 11.43C20.23 11.43 19.85 11.48 19.49 11.59C18.87 11.81 18.33 12.19 17.93 12.71L17.89 12.75C17.88 12.75 17.88 12.76 17.87 12.76C17.86 12.77 17.85 12.77 17.84 12.77C17.83 12.77 17.82 12.77 17.81 12.76C17.8 12.76 17.8 12.75 17.79 12.75C17.78 12.74 17.78 12.73 17.77 12.72C17.77 12.72 17.76 12.71 17.76 12.7C17.75 12.32 17.81 11.95 17.94 11.59C18.15 11.06 18.52 10.6 18.99 10.28C19.47 9.95 20.03 9.78 20.6 9.78C21.18 9.78 21.74 9.95 22.21 10.28C22.69 10.6 23.05 11.06 23.26 11.59C23.4 11.95 23.46 12.32 23.44 12.7C23.44 12.71 23.44 12.71 23.44 12.72C23.43 12.73 23.43 12.74 23.42 12.75C23.41 12.75 23.4 12.76 23.39 12.76C23.39 12.76 23.38 12.76 23.37 12.76C23.36 12.76 23.35 12.76 23.34 12.76C23.33 12.75 23.32 12.75 23.32 12.74L23.28 12.71Z" fill="#1C1C1C" fill-opacity="1.000000" fill-rule="nonzero"/>
</svg>
