<svg width="31.000000" height="31.000000" viewBox="0 0 31 31" fill="none" xmlns="http://www.w3.org/2000/svg" xmlns:xlink="http://www.w3.org/1999/xlink">
	<desc>
			Created with Pixso.
	</desc>
	<defs/>
	<path id="Vector" d="M30.16 15.27C30.16 23.86 23.19 30.83 14.6 30.83C6.01 30.83 -0.95 23.86 -0.95 15.27C-0.95 6.68 6.01 -0.28 14.6 -0.28C23.19 -0.28 30.16 6.68 30.16 15.27Z" fill="#FFDD00" fill-opacity="1.000000" fill-rule="evenodd"/>
	<g opacity="0.500000">
		<path id="Vector" d="M15.84 16.14C11.87 20.12 6.16 20.86 3.1 17.8C0.04 14.73 0.78 9.04 4.76 5.05C8.74 1.06 14.44 0.33 17.5 3.4C20.57 6.46 19.82 12.17 15.84 16.14Z" fill="#FFDD00" fill-opacity="1.000000" fill-rule="nonzero"/>
	</g>
	<g opacity="0.300000">
		<path id="Vector" d="M10.33 10.84C8.53 12.64 5.94 12.98 4.55 11.59C3.17 10.2 3.5 7.62 5.3 5.81C7.11 4.01 9.69 3.68 11.08 5.06C12.47 6.45 12.13 9.04 10.33 10.84Z" fill="#FFFFFF" fill-opacity="1.000000" fill-rule="nonzero"/>
	</g>
	<g opacity="0.400000">
		<path id="Vector" d="M14.62 30.27C12.13 30.26 9.68 29.64 7.49 28.45C5.3 27.27 3.43 25.56 2.06 23.48C4.91 25.67 8.46 26.74 12.04 26.5C15.62 26.27 19 24.74 21.53 22.2C24.07 19.66 25.6 16.29 25.84 12.7C26.07 9.12 25 5.58 22.82 2.72C25.52 4.49 27.58 7.08 28.69 10.12C29.8 13.15 29.9 16.46 28.98 19.55C28.06 22.65 26.16 25.36 23.58 27.29C20.99 29.22 17.84 30.27 14.62 30.27Z" fill="#FFDD00" fill-opacity="1.000000" fill-rule="nonzero"/>
	</g>
	<path id="Vector" d="M24.99 5.29C27.6 8.01 29.03 11.65 28.99 15.42C28.95 19.18 27.43 22.79 24.77 25.45C22.1 28.12 18.5 29.63 14.73 29.67C10.97 29.72 7.33 28.28 4.61 25.68C7.46 26.99 10.65 27.4 13.74 26.84C16.83 26.29 19.68 24.8 21.9 22.58C24.12 20.36 25.61 17.51 26.16 14.42C26.71 11.33 26.31 8.14 24.99 5.29ZM20.09 0.72C21.63 1.98 22.88 3.55 23.78 5.32C24.67 7.1 25.19 9.04 25.29 11.03C25.38 13.02 25.06 15 24.35 16.86C23.63 18.71 22.54 20.4 21.13 21.81C19.73 23.21 18.04 24.31 16.18 25.02C14.33 25.74 12.34 26.06 10.36 25.96C8.37 25.86 6.43 25.35 4.65 24.45C2.88 23.56 1.31 22.3 0.05 20.76C0.96 23.2 2.47 25.37 4.45 27.07C6.42 28.78 8.78 29.96 11.33 30.51C13.87 31.06 16.52 30.97 19.02 30.23C21.51 29.5 23.79 28.15 25.63 26.31C27.47 24.46 28.82 22.19 29.56 19.69C30.29 17.19 30.39 14.55 29.84 12C29.29 9.45 28.11 7.09 26.4 5.12C24.7 3.14 22.53 1.63 20.09 0.72Z" fill="#FFDD00" fill-opacity="1.000000" fill-rule="nonzero"/>
	<path id="Vector" d="M17.66 22.13C17.66 24.24 16.29 25.95 14.6 25.95C12.92 25.95 11.55 24.24 11.55 22.13C11.55 20.02 12.92 18.31 14.6 18.31C16.29 18.31 17.66 20.02 17.66 22.13Z" fill="#1C1C1C" fill-opacity="1.000000" fill-rule="evenodd"/>
	<path id="Vector" d="M13.38 14.74C13.38 16.86 11.66 18.58 9.54 18.58C7.42 18.58 5.7 16.86 5.7 14.74C5.7 12.62 7.42 10.9 9.54 10.9C11.66 10.9 13.38 12.62 13.38 14.74Z" fill="#FFFFFF" fill-opacity="1.000000" fill-rule="evenodd"/>
	<path id="Vector" d="M10.7 14.21C10.7 15.29 9.82 16.17 8.74 16.17C7.66 16.17 6.78 15.29 6.78 14.21C6.78 13.13 7.66 12.25 8.74 12.25C9.82 12.25 10.7 13.13 10.7 14.21Z" fill="#1C1C1C" fill-opacity="1.000000" fill-rule="evenodd"/>
	<path id="Vector" d="M4.65 13.57C4.62 13.54 4.6 13.51 4.58 13.48C4.54 13.42 4.46 13.34 4.4 13.23C4.33 13.13 4.32 13.12 4.28 13.06C4.25 12.98 4.21 12.9 4.19 12.81C4.15 12.72 4.12 12.62 4.1 12.52C4.07 12.41 4.06 12.31 4.04 12.2C4.02 12.08 4.01 11.97 4 11.85C3.99 11.72 4 11.6 4.02 11.47C4.04 11.2 4.1 10.93 4.18 10.67C4.23 10.54 4.29 10.41 4.35 10.27C4.4 10.14 4.47 10.01 4.56 9.88C4.72 9.63 4.91 9.39 5.12 9.17C5.34 8.96 5.58 8.77 5.83 8.61C5.96 8.53 6.09 8.46 6.22 8.4C6.35 8.34 6.49 8.28 6.63 8.23C6.88 8.15 7.15 8.09 7.42 8.07C7.55 8.07 7.68 8.05 7.8 8.05C7.92 8.05 8.04 8.07 8.15 8.09C8.35 8.12 8.55 8.17 8.74 8.24C8.82 8.27 8.9 8.3 8.98 8.34L9.17 8.45C9.29 8.51 9.38 8.59 9.43 8.63L9.52 8.7L9.52 8.86L9.2 8.89L9.03 8.9L8.84 8.94C8.68 8.97 8.53 9 8.38 9.05L8.12 9.12L7.85 9.22C7.66 9.3 7.48 9.38 7.3 9.48C7.11 9.59 6.92 9.71 6.75 9.85C6.38 10.12 6.06 10.45 5.78 10.81C5.64 10.98 5.52 11.16 5.41 11.35C5.31 11.53 5.22 11.72 5.15 11.91C5.11 12 5.08 12.09 5.05 12.18C5.01 12.27 5 12.36 4.97 12.44C4.93 12.59 4.9 12.74 4.87 12.89C4.87 12.96 4.84 13.02 4.83 13.08C4.82 13.14 4.83 13.2 4.83 13.25C4.82 13.46 4.8 13.58 4.8 13.58L4.65 13.57Z" fill="#1C1C1C" fill-opacity="1.000000" fill-rule="nonzero"/>
	<path id="Vector" d="M23.51 14.74C23.51 16.86 21.79 18.58 19.67 18.58C17.55 18.58 15.83 16.86 15.83 14.74C15.83 12.62 17.55 10.9 19.67 10.9C21.79 10.9 23.51 12.62 23.51 14.74Z" fill="#FFFFFF" fill-opacity="1.000000" fill-rule="evenodd"/>
	<path id="Vector" d="M20.83 14.21C20.83 15.29 19.95 16.17 18.87 16.17C17.79 16.17 16.91 15.29 16.91 14.21C16.91 13.13 17.79 12.25 18.87 12.25C19.95 12.25 20.83 13.13 20.83 14.21Z" fill="#1C1C1C" fill-opacity="1.000000" fill-rule="evenodd"/>
	<path id="Vector" d="M24.39 13.58C24.39 13.58 24.39 13.46 24.36 13.25C24.36 13.21 24.36 13.15 24.36 13.08C24.36 13.02 24.34 12.96 24.33 12.89C24.3 12.74 24.27 12.59 24.22 12.44C24.2 12.36 24.18 12.27 24.15 12.18C24.12 12.1 24.09 12 24.05 11.91C23.97 11.72 23.89 11.54 23.79 11.36C23.68 11.17 23.55 10.98 23.42 10.81C23.28 10.63 23.13 10.46 22.97 10.3C22.81 10.14 22.64 9.99 22.46 9.85C22.29 9.72 22.11 9.59 21.92 9.48C21.74 9.39 21.55 9.3 21.36 9.22L21.09 9.12L20.83 9.05C20.68 9.01 20.53 8.97 20.38 8.95L20.18 8.91L20.02 8.89L19.69 8.86L19.69 8.7C19.72 8.68 19.75 8.65 19.78 8.63C19.86 8.56 19.95 8.5 20.03 8.45L20.23 8.34C20.31 8.3 20.39 8.27 20.47 8.24C20.66 8.17 20.86 8.12 21.06 8.09C21.17 8.08 21.29 8.07 21.41 8.06C21.54 8.04 21.66 8.06 21.79 8.07C22.06 8.1 22.33 8.15 22.59 8.24C22.72 8.28 22.86 8.34 22.99 8.4C23.12 8.46 23.25 8.53 23.38 8.61C23.63 8.77 23.87 8.96 24.09 9.17C24.3 9.39 24.49 9.63 24.65 9.89C24.74 10.01 24.81 10.14 24.86 10.28C24.93 10.41 24.98 10.54 25.03 10.68C25.11 10.93 25.17 11.2 25.19 11.48C25.19 11.61 25.19 11.73 25.19 11.85C25.19 11.97 25.17 12.09 25.16 12.2C25.14 12.31 25.12 12.42 25.1 12.52C25.07 12.63 25.04 12.73 25.01 12.82C24.98 12.91 24.95 12.99 24.91 13.06L24.8 13.24C24.74 13.32 24.68 13.41 24.62 13.48C24.59 13.51 24.57 13.54 24.54 13.57L24.39 13.58Z" fill="#1C1C1C" fill-opacity="1.000000" fill-rule="nonzero"/>
</svg>
