<svg width="40.000000" height="40.000000" viewBox="0 0 40 40" fill="none" xmlns="http://www.w3.org/2000/svg" xmlns:xlink="http://www.w3.org/1999/xlink">
	<desc>
			Created with Pixso.
	</desc>
	<defs>
		<clipPath id="clip75_7564">
			<rect id="facebook 2" width="40.000000" height="40.000000" fill="white" fill-opacity="0"/>
		</clipPath>
	</defs>
	<rect id="facebook 2" width="40.000000" height="40.000000" fill="#FFFFFF" fill-opacity="0"/>
	<g clip-path="url(#clip75_7564)">
		<path id="Vector" d="M20 40L10 40C7.34 39.99 4.8 38.94 2.92 37.07C1.05 35.19 0 32.65 0 30L0 10C0 7.34 1.05 4.8 2.92 2.92C4.8 1.05 7.34 0 10 0L30 0C32.65 0 35.19 1.05 37.07 2.92C38.94 4.8 40 7.34 40 10L40 30C40 32.65 38.94 35.19 37.07 37.07C35.19 38.94 32.65 40 30 40L26.25 40C26.25 39.17 25.92 38.37 25.33 37.79C24.74 37.2 23.95 36.87 23.12 36.87C22.29 36.87 21.5 37.2 20.91 37.79C20.32 38.37 20 39.17 20 40Z" fill="#3764B9" fill-opacity="1.000000" fill-rule="evenodd"/>
		<path id="Vector" d="M18.75 11.25L30 11.25C31.44 11.24 32.82 10.69 33.87 9.7C34.91 8.7 35.54 7.35 35.61 5.91C35.69 4.47 35.2 3.05 34.27 1.96C33.33 0.86 32 0.17 30.57 0.02C30.38 0.01 30.19 0 30 0L10 0C7.34 0 4.8 1.05 2.92 2.92C1.05 4.8 0 7.34 0 10L0 30C0 25.02 1.97 20.25 5.49 16.74C9 13.22 13.77 11.25 18.75 11.25Z" fill="#507DD2" fill-opacity="1.000000" fill-rule="evenodd"/>
		<path id="Vector" d="M30 20C28.02 20 26.08 20.58 24.44 21.68C22.79 22.78 21.51 24.34 20.76 26.17C20 28 19.8 30.01 20.19 31.95C20.57 33.89 21.53 35.67 22.92 37.07C24.32 38.46 26.1 39.42 28.04 39.8C29.98 40.19 31.99 39.99 33.82 39.23C35.65 38.48 37.21 37.2 38.31 35.55C39.41 33.91 40 31.97 40 30L40 10C40 12.65 38.94 15.19 37.07 17.07C35.19 18.94 32.65 20 30 20Z" fill="#1E4BA0" fill-opacity="1.000000" fill-rule="evenodd"/>
		<path id="Vector" d="M32.5 11.25C32.5 11.58 32.36 11.89 32.13 12.13C31.89 12.36 31.58 12.5 31.25 12.5L27.5 12.5C27.16 12.5 26.85 12.63 26.61 12.86C26.38 13.1 26.25 13.41 26.25 13.75L26.25 18.75L30.97 18.75C31.15 18.75 31.34 18.79 31.5 18.87C31.67 18.94 31.82 19.06 31.94 19.2C32.05 19.35 32.14 19.51 32.18 19.69C32.23 19.87 32.23 20.06 32.2 20.24C31.96 21.4 31.65 22.98 31.45 23.99C31.39 24.27 31.24 24.53 31.01 24.71C30.79 24.89 30.51 25 30.22 25L26.25 25L26.25 40L20 40L20 25L16.25 25C15.91 25 15.6 24.86 15.36 24.63C15.13 24.39 15 24.08 15 23.75L15 20C15 19.66 15.13 19.35 15.36 19.11C15.6 18.88 15.91 18.75 16.25 18.75L20 18.75L20 13.75C20 11.76 20.79 9.85 22.19 8.44C23.6 7.04 25.51 6.25 27.5 6.25L31.25 6.25C31.58 6.25 31.89 6.38 32.13 6.61C32.36 6.85 32.5 7.16 32.5 7.5L32.5 11.25Z" fill="#FFFFFF" fill-opacity="1.000000" fill-rule="evenodd"/>
	</g>
</svg>
