<svg width="40.000000" height="40.000000" viewBox="0 0 40 40" fill="none" xmlns="http://www.w3.org/2000/svg" xmlns:xlink="http://www.w3.org/1999/xlink">
	<desc>
			Created with Pixso.
	</desc>
	<defs/>
	<path id="Vector" d="M20 0C31.04 0 40 8.95 40 20C40 31.04 31.04 40 20 40C8.95 40 0 31.04 0 20C0 8.95 8.95 0 20 0Z" fill="#37B5B6" fill-opacity="1.000000" fill-rule="evenodd"/>
	<path id="Vector" d="M21.76 13.46C22.39 13.46 23.01 13.58 23.59 13.82C24.17 14.06 24.69 14.41 25.14 14.85C25.58 15.3 25.93 15.82 26.17 16.4C26.41 16.98 26.53 17.6 26.53 18.23C26.54 18.39 26.6 18.54 26.72 18.66C26.83 18.77 26.98 18.83 27.14 18.83C27.31 18.83 27.46 18.77 27.57 18.66C27.69 18.54 27.75 18.39 27.75 18.23C27.75 16.64 27.12 15.12 26 13.99C24.87 12.87 23.35 12.24 21.76 12.24C21.68 12.24 21.6 12.25 21.52 12.28C21.45 12.31 21.38 12.36 21.32 12.41C21.27 12.47 21.22 12.54 21.19 12.61C21.16 12.69 21.14 12.77 21.14 12.85C21.14 12.93 21.16 13.01 21.19 13.08C21.22 13.16 21.27 13.22 21.32 13.28C21.38 13.34 21.45 13.38 21.52 13.41C21.6 13.44 21.68 13.46 21.76 13.46L21.76 13.46ZM20.84 17.36C20.76 17.36 20.68 17.35 20.6 17.32C20.53 17.29 20.46 17.24 20.4 17.18C20.35 17.13 20.3 17.06 20.27 16.99C20.24 16.91 20.22 16.83 20.22 16.75C20.22 16.67 20.24 16.59 20.27 16.52C20.3 16.44 20.35 16.37 20.4 16.32C20.46 16.26 20.53 16.22 20.6 16.18C20.68 16.15 20.76 16.14 20.84 16.14C21.25 16.14 21.66 16.22 22.04 16.38C22.42 16.54 22.76 16.77 23.05 17.06C23.34 17.35 23.58 17.69 23.73 18.07C23.89 18.45 23.97 18.86 23.97 19.27C23.97 19.43 23.9 19.59 23.79 19.7C23.68 19.81 23.52 19.88 23.36 19.88C23.2 19.88 23.05 19.81 22.93 19.7C22.82 19.59 22.75 19.43 22.75 19.27C22.75 19.02 22.7 18.77 22.61 18.54C22.51 18.31 22.37 18.1 22.19 17.92C22.01 17.74 21.8 17.6 21.57 17.51C21.34 17.41 21.09 17.36 20.84 17.36L20.84 17.36ZM24.81 32.45C22.88 32.11 20.98 31.22 19.32 30.21C17.4 29.04 15.6 27.57 14.01 25.98C12.42 24.39 10.95 22.59 9.78 20.67C8.77 19.01 7.88 17.11 7.54 15.18C7.46 14.75 7.48 14.31 7.61 13.89C7.75 13.47 7.98 13.09 8.29 12.79L10.84 10.25C10.96 10.13 11.12 10.06 11.29 10.06C11.45 10.06 11.61 10.13 11.73 10.25L16.3 14.81C16.42 14.93 16.49 15.09 16.49 15.26C16.49 15.43 16.42 15.59 16.3 15.71L13.87 18.14C13.7 18.31 13.59 18.54 13.57 18.78C13.55 19.02 13.62 19.27 13.76 19.46C14.7 20.76 15.75 21.98 16.89 23.1C18.01 24.24 19.23 25.29 20.53 26.23C20.73 26.37 20.97 26.44 21.21 26.42C21.45 26.4 21.68 26.29 21.85 26.12L24.28 23.69C24.34 23.63 24.41 23.58 24.49 23.55C24.56 23.52 24.65 23.5 24.73 23.5C24.9 23.5 25.06 23.57 25.18 23.69L29.75 28.26C29.86 28.38 29.93 28.54 29.93 28.71C29.93 28.87 29.86 29.03 29.75 29.15L27.2 31.7C26.9 32.01 26.52 32.25 26.1 32.38C25.68 32.51 25.24 32.53 24.81 32.45ZM21.76 8.71C21.6 8.71 21.44 8.65 21.33 8.54C21.21 8.42 21.15 8.27 21.15 8.1C21.15 7.94 21.21 7.79 21.33 7.67C21.44 7.56 21.6 7.5 21.76 7.5C23.17 7.49 24.57 7.77 25.87 8.31C27.17 8.85 28.35 9.64 29.35 10.64C30.35 11.64 31.14 12.82 31.68 14.12C32.22 15.42 32.5 16.82 32.5 18.23C32.5 18.39 32.43 18.55 32.32 18.66C32.2 18.78 32.05 18.84 31.88 18.84C31.72 18.84 31.57 18.78 31.45 18.66C31.34 18.55 31.27 18.39 31.27 18.23C31.27 15.71 30.27 13.29 28.49 11.5C26.7 9.72 24.28 8.71 21.76 8.71Z" fill="#FFFFFF" fill-opacity="1.000000" fill-rule="evenodd"/>
</svg>
