<svg width="27.000000" height="27.000000" viewBox="0 0 27 27" fill="none" xmlns="http://www.w3.org/2000/svg" xmlns:xlink="http://www.w3.org/1999/xlink">
	<desc>
			Created with Pixso.
	</desc>
	<defs/>
	<path id="Vector" d="M12.99 26.01C20.18 26.01 26 20.18 26 13C26 5.81 20.18 -0.02 12.99 -0.02C5.81 -0.02 -0.02 5.81 -0.02 13C-0.02 20.18 5.81 26.01 12.99 26.01Z" fill="#FFFFFF" fill-opacity="1.000000" fill-rule="nonzero"/>
	<path id="Vector" d="M26 13C26 20.18 20.18 26.01 12.99 26.01C5.81 26.01 -0.02 20.18 -0.02 13C-0.02 5.81 5.81 -0.02 12.99 -0.02C20.18 -0.02 26 5.81 26 13ZM17.79 24.59C16.32 25.2 14.72 25.51 12.99 25.51C11.26 25.51 9.66 25.2 8.19 24.59C6.72 23.98 5.37 23.06 4.15 21.84C2.93 20.62 2.01 19.27 1.4 17.8C0.79 16.32 0.48 14.72 0.48 13C0.48 11.27 0.79 9.67 1.4 8.19C2.01 6.72 2.93 5.37 4.15 4.15C5.37 2.93 6.72 2.01 8.19 1.4C9.66 0.79 11.26 0.48 12.99 0.48C14.72 0.48 16.32 0.79 17.79 1.4C19.27 2.01 20.61 2.93 21.84 4.15C23.06 5.37 23.97 6.72 24.58 8.19C25.19 9.67 25.5 11.27 25.5 13C25.5 14.72 25.19 16.32 24.58 17.8C23.97 19.27 23.06 20.62 21.84 21.84C20.61 23.06 19.27 23.98 17.79 24.59Z" fill="#8C52FF" fill-opacity="1.000000" fill-rule="evenodd"/>
	<path id="Vector" d="M15.33 19.44C15.29 19.43 15.25 19.42 15.2 19.42C14.86 19.39 14.52 19.38 14.18 19.36C13.09 19.3 12.02 19.05 11.02 18.6C10.71 18.45 10.36 18.37 10.02 18.39C9.75 18.39 9.48 18.39 9.2 18.39C9.04 18.39 8.87 18.37 8.71 18.34C8.57 18.32 8.44 18.25 8.35 18.15C8.25 18.05 8.19 17.92 8.17 17.78C8.14 17.62 8.13 17.46 8.13 17.29C8.13 15.98 8.13 14.66 8.13 13.34C8.13 13.05 8.13 12.75 8.15 12.45C8.15 12.22 8.25 11.99 8.41 11.83C8.58 11.66 8.81 11.57 9.04 11.56C9.4 11.55 9.75 11.52 10.1 11.47C10.3 11.45 10.48 11.37 10.64 11.26C10.8 11.14 10.92 10.99 11.01 10.82C11.19 10.42 11.46 10.07 11.79 9.78C12.08 9.55 12.38 9.33 12.69 9.13C13.05 8.93 13.35 8.65 13.56 8.31C13.79 7.85 14 7.38 14.19 6.9C14.31 6.57 14.35 6.22 14.46 5.88C14.48 5.75 14.53 5.62 14.6 5.51C14.68 5.4 14.78 5.31 14.9 5.24L15.23 5.24C15.28 5.24 15.32 5.27 15.36 5.28C15.61 5.3 15.85 5.39 16.04 5.55C16.23 5.7 16.38 5.91 16.45 6.15C16.52 6.37 16.55 6.6 16.55 6.83C16.54 7.84 16.33 8.84 15.93 9.77C15.86 9.94 15.77 10.12 15.68 10.31L15.75 10.32L19.24 10.75C19.48 10.77 19.72 10.81 19.96 10.87C20.19 10.95 20.38 11.1 20.51 11.3C20.65 11.5 20.71 11.74 20.7 11.98C20.7 12.22 20.61 12.45 20.46 12.64C20.32 12.83 20.11 12.97 19.88 13.04L19.67 13.09C19.94 13.13 20.18 13.27 20.35 13.48C20.53 13.68 20.62 13.94 20.62 14.21C20.61 14.37 20.58 14.52 20.51 14.66C20.45 14.8 20.36 14.93 20.24 15.03C20 15.23 19.69 15.34 19.37 15.32C19.4 15.34 19.43 15.35 19.46 15.37C19.67 15.43 19.85 15.55 19.98 15.72C20.12 15.89 20.19 16.1 20.2 16.32C20.22 16.54 20.16 16.76 20.05 16.96C19.94 17.15 19.77 17.3 19.57 17.4C19.32 17.51 19.04 17.54 18.77 17.51L18.35 17.49C18.45 17.55 18.54 17.62 18.62 17.69C18.74 17.82 18.82 17.98 18.86 18.14C18.9 18.31 18.9 18.48 18.86 18.65C18.83 18.83 18.73 18.99 18.59 19.09C18.4 19.25 18.19 19.37 17.96 19.44L15.33 19.44Z" stroke="#8C52FF" stroke-opacity="1.000000" stroke-width="0.500000" stroke-linejoin="round"/>
	<path id="Vector" d="M5.82 11.61L7.02 11.61C7.32 11.61 7.57 11.86 7.57 12.17L7.57 17.82C7.57 18.13 7.32 18.38 7.02 18.38L5.82 18.38C5.51 18.38 5.26 18.13 5.26 17.82L5.26 12.17C5.26 11.86 5.51 11.61 5.82 11.61Z" fill="#8C52FF" fill-opacity="1.000000" fill-rule="evenodd"/>
</svg>
