<svg width="26.000000" height="27.000000" viewBox="0 0 26 27" fill="none" xmlns="http://www.w3.org/2000/svg" xmlns:xlink="http://www.w3.org/1999/xlink">
	<desc>
			Created with Pixso.
	</desc>
	<defs>
		<clipPath id="clip535_4412">
			<rect id="ellipsis 1" width="13.125000" height="15.000000" transform="translate(5.068848 6.000000)" fill="white" fill-opacity="0"/>
		</clipPath>
	</defs>
	<path id="Vector" d="M12.07 26.02C19.25 26.02 25.08 20.19 25.08 13.01C25.08 5.82 19.26 0 12.07 0C4.89 0 -0.94 5.82 -0.94 13.01C-0.94 20.19 4.88 26.02 12.07 26.02Z" fill="#FFFFFF" fill-opacity="1.000000" fill-rule="nonzero"/>
	<path id="Vector" d="M25.08 13.01C25.08 20.19 19.25 26.02 12.07 26.02C4.88 26.02 -0.94 20.19 -0.94 13.01C-0.94 5.82 4.89 0 12.07 0C19.26 0 25.08 5.82 25.08 13.01ZM16.87 24.6Q14.66 25.52 12.07 25.52Q9.48 25.52 7.27 24.6Q5.06 23.68 3.22 21.85Q1.39 20.02 0.48 17.81Q-0.44 15.6 -0.44 13.01Q-0.44 10.41 0.48 8.2Q1.4 5.99 3.23 4.16Q5.06 2.33 7.27 1.41Q9.48 0.5 12.07 0.5Q14.66 0.5 16.87 1.41Q19.09 2.33 20.92 4.16Q22.75 5.99 23.66 8.2Q24.58 10.41 24.58 13.01Q24.58 15.6 23.66 17.81Q22.75 20.02 20.91 21.85Q19.08 23.68 16.87 24.6Z" fill="#768286" fill-opacity="1.000000" fill-rule="evenodd"/>
	<rect id="ellipsis 1" width="13.125000" height="15.000000" transform="translate(5.068848 6.000000)" fill="#FFFFFF" fill-opacity="0"/>
	<g clip-path="url(#clip535_4412)">
		<path id="Vector" d="M17.25 13.5C17.25 13.74 17.15 13.98 16.98 14.16C16.8 14.33 16.56 14.43 16.31 14.43C16.07 14.43 15.83 14.33 15.65 14.16C15.48 13.98 15.38 13.74 15.38 13.5C15.38 13.25 15.48 13.01 15.65 12.83C15.83 12.66 16.07 12.56 16.31 12.56C16.56 12.56 16.8 12.66 16.98 12.83C17.15 13.01 17.25 13.25 17.25 13.5ZM12.56 13.5C12.56 13.74 12.47 13.98 12.29 14.16C12.11 14.33 11.88 14.43 11.63 14.43C11.38 14.43 11.14 14.33 10.96 14.16C10.79 13.98 10.69 13.74 10.69 13.5C10.69 13.25 10.79 13.01 10.96 12.83C11.14 12.66 11.38 12.56 11.63 12.56C11.88 12.56 12.11 12.66 12.29 12.83C12.47 13.01 12.56 13.25 12.56 13.5ZM6.94 14.43C6.69 14.43 6.45 14.33 6.28 14.16C6.1 13.98 6 13.74 6 13.5C6 13.25 6.1 13.01 6.28 12.83C6.45 12.66 6.69 12.56 6.94 12.56C7.19 12.56 7.43 12.66 7.6 12.83C7.78 13.01 7.88 13.25 7.88 13.5C7.88 13.74 7.78 13.98 7.6 14.16C7.43 14.33 7.19 14.43 6.94 14.43Z" fill="#768286" fill-opacity="1.000000" fill-rule="nonzero"/>
	</g>
</svg>
