<svg width="30.000000" height="29.000000" viewBox="0 0 30 29" fill="none" xmlns="http://www.w3.org/2000/svg" xmlns:xlink="http://www.w3.org/1999/xlink">
	<desc>
			Created with Pixso.
	</desc>
	<defs/>
	<path id="Vector" d="M24.75 0L4.5 0C2.01 0 0 2.01 0 4.5L0 27C0 27.43 0.25 27.83 0.64 28.01C0.79 28.08 0.96 28.12 1.12 28.12C1.38 28.12 1.63 28.03 1.84 27.86L8.28 22.5L24.75 22.5C27.23 22.5 29.25 20.48 29.25 18L29.25 4.5C29.25 2.01 27.23 0 24.75 0ZM16.87 13.5L7.87 13.5C7.25 13.5 6.75 12.99 6.75 12.37C6.75 11.75 7.25 11.25 7.87 11.25L16.87 11.25C17.49 11.25 18 11.75 18 12.37C18 12.99 17.49 13.5 16.87 13.5ZM21.37 9L7.87 9C7.25 9 6.75 8.49 6.75 7.87C6.75 7.25 7.25 6.75 7.87 6.75L21.37 6.75C21.99 6.75 22.5 7.25 22.5 7.87C22.5 8.49 21.99 9 21.37 9Z" fill="#FFFFFF" fill-opacity="1.000000" fill-rule="nonzero"/>
</svg>
