<svg width="27.000000" height="27.000000" viewBox="0 0 27 27" fill="none" xmlns="http://www.w3.org/2000/svg" xmlns:xlink="http://www.w3.org/1999/xlink">
	<desc>
			Created with Pixso.
	</desc>
	<defs>
		<clipPath id="clip535_4450">
			<rect id="quote-left 1" width="15.750000" height="18.000000" transform="translate(5.000000 4.000000)" fill="white" fill-opacity="0"/>
		</clipPath>
	</defs>
	<path id="Vector" d="M13 26.02C20.19 26.02 26.01 20.19 26.01 13.01C26.02 5.82 20.19 0 13.01 0C5.82 0 0 5.82 0 13.01C0 20.19 5.82 26.02 13 26.02Z" fill="#FFFFFF" fill-opacity="1.000000" fill-rule="nonzero"/>
	<path id="Vector" d="M26.01 13.01C26.01 20.19 20.19 26.02 13 26.02C5.82 26.02 0 20.19 0 13.01C0 5.82 5.82 0 13.01 0C20.19 0 26.02 5.82 26.01 13.01ZM17.8 24.6Q15.59 25.52 13 25.52Q10.41 25.52 8.2 24.6Q5.99 23.68 4.16 21.85Q2.33 20.02 1.41 17.81Q0.5 15.6 0.5 13.01Q0.5 10.41 1.41 8.2Q2.33 5.99 4.16 4.16Q5.99 2.33 8.21 1.41Q10.42 0.5 13.01 0.5Q15.6 0.5 17.81 1.41Q20.02 2.33 21.85 4.16Q23.68 5.99 24.6 8.2Q25.52 10.41 25.51 13.01Q25.51 15.6 24.6 17.81Q23.68 20.02 21.85 21.85Q20.02 23.68 17.8 24.6Z" fill="#119DFF" fill-opacity="1.000000" fill-rule="evenodd"/>
	<rect id="quote-left 1" width="15.750000" height="18.000000" transform="translate(5.000000 4.000000)" fill="#FFFFFF" fill-opacity="0"/>
	<g clip-path="url(#clip535_4450)">
		<path id="Vector" d="M8.37 11.87C7.97 11.87 7.6 11.95 7.25 12.08L7.25 11.87C7.25 10.63 8.25 9.62 9.5 9.62C10.12 9.62 10.62 9.12 10.62 8.5C10.62 7.87 10.12 7.37 9.5 7.37C7.01 7.37 5 9.39 5 11.87L5 15.25C5 17.11 6.51 18.62 8.37 18.62C10.23 18.62 11.75 17.11 11.75 15.25C11.75 13.38 10.23 11.87 8.37 11.87ZM17.37 11.87C16.97 11.87 16.6 11.95 16.25 12.08L16.25 11.87C16.25 10.63 17.25 9.62 18.5 9.62C19.12 9.62 19.62 9.12 19.62 8.5C19.62 7.87 19.12 7.37 18.5 7.37C16.01 7.37 14 9.39 14 11.87L14 15.25C14 17.11 15.51 18.62 17.37 18.62C19.23 18.62 20.75 17.11 20.75 15.25C20.75 13.38 19.23 11.87 17.37 11.87Z" fill="#119DFF" fill-opacity="1.000000" fill-rule="nonzero"/>
	</g>
</svg>
